<?xml version="1.0" encoding="UTF-8" standalone="no"?>
<svg
   width="2693"
   height="1177"
   viewBox="0 0 2693 1177"
   fill="none"
   version="1.1"
   id="svg4"
   sodipodi:docname="setting-logo-1-5qPHz65QOZ.svg"
   inkscape:version="1.4.2 (2aeb623e1d, 2025-05-12)"
   xmlns:inkscape="http://www.inkscape.org/namespaces/inkscape"
   xmlns:sodipodi="http://sodipodi.sourceforge.net/DTD/sodipodi-0.dtd"
   xmlns="http://www.w3.org/2000/svg"
   xmlns:svg="http://www.w3.org/2000/svg">
  <defs
     id="defs4" />
  <sodipodi:namedview
     id="namedview4"
     pagecolor="#505050"
     bordercolor="#eeeeee"
     borderopacity="1"
     inkscape:showpageshadow="0"
     inkscape:pageopacity="0"
     inkscape:pagecheckerboard="0"
     inkscape:deskcolor="#505050"
     inkscape:zoom="0.42331972"
     inkscape:cx="1346.5"
     inkscape:cy="588.20789"
     inkscape:window-width="1920"
     inkscape:window-height="953"
     inkscape:window-x="0"
     inkscape:window-y="0"
     inkscape:window-maximized="1"
     inkscape:current-layer="svg4" />
  <path
     d="M2587.9 319.55C2561.42 390.363 2534.12 455.386 2506 514.621C2477.87 573.856 2447.67 633.311 2415.39 692.987L2265.9 637.094C2280.69 570.881 2296.47 506.032 2313.23 442.548C2330.86 379.391 2352.92 312.407 2379.39 241.594L2467.16 6.86407L2675.66 84.8202L2587.9 319.55ZM2391.67 896.358C2377.29 934.824 2353.5 959.808 2320.3 971.31C2287.98 983.14 2256.08 983.171 2224.61 971.404C2193.13 959.637 2168.64 938.523 2151.14 908.063C2134.5 877.929 2133.38 843.63 2147.76 805.164C2162.14 766.698 2185.49 741.55 2217.82 729.72C2251.01 718.218 2283.35 718.35 2314.82 730.117C2346.29 741.884 2370.35 762.834 2386.98 792.968C2404.49 823.428 2406.05 857.892 2391.67 896.358Z"
     fill="#FB0470"
     id="path1" />
  <path
     d="M2008.6 473.555C1921.4 473.555 1858.2 497.955 1819 546.755C1780.6 594.755 1761.4 660.755 1761.4 744.755C1761.4 785.555 1766.2 822.755 1775.8 856.355C1785.4 889.155 1799.8 917.555 1819 941.555C1838.2 965.555 1862.2 984.355 1891 997.955C1919.8 1010.75 1953.4 1017.15 1991.8 1017.15C2012.6 1017.15 2030.2 1016.75 2044.6 1015.95C2059.8 1015.15 2073 1013.55 2084.2 1011.15V721.955H2271.4V1133.55C2249 1142.35 2213 1151.55 2163.4 1161.15C2113.8 1171.55 2052.6 1176.75 1979.8 1176.75C1917.4 1176.75 1860.6 1167.15 1809.4 1147.95C1759 1128.75 1715.8 1100.75 1679.8 1063.95C1643.8 1027.15 1615.8 981.955 1595.8 928.355C1576.6 874.755 1567 813.555 1567 744.755C1567 675.155 1577.8 613.555 1599.4 559.954C1621 506.354 1650.6 461.155 1688.2 424.355C1725.8 386.755 1769.8 358.355 1820.2 339.154C1871.4 319.954 1925.8 310.354 1983.4 310.354C2022.6 310.354 2057.8 313.154 2089 318.755C2121 323.555 2148.2 329.554 2170.6 336.754C2193.8 343.154 2212.6 349.955 2227 357.155C2242.2 364.355 2253 369.955 2259.4 373.955L2205.4 523.955C2179.8 510.355 2150.2 498.755 2116.6 489.155C2083.8 478.755 2047.8 473.555 2008.6 473.555Z"
     fill="black"
     id="path2"
     style="fill:#000000;fill-opacity:1" />
  <path
     d="M1607.8 329.554V489.154H1357V1161.15H1169.8V489.154H919V329.554H1607.8Z"
     fill="black"
     id="path3"
     style="fill:#000000;fill-opacity:1" />
  <path
     d="M244.8 329.554C259.2 355.954 275.6 388.754 294 427.954C313.2 466.354 332.8 508.354 352.8 553.954C373.6 598.754 394 644.754 414 691.954C434 739.154 452.8 783.554 470.4 825.154C488 783.554 506.8 739.154 526.8 691.954C546.8 644.754 566.8 598.754 586.8 553.954C607.6 508.354 627.2 466.354 645.6 427.954C664.8 388.754 681.6 355.954 696 329.554H866.4C874.4 384.754 881.6 446.754 888 515.554C895.2 583.554 901.2 654.754 906 729.154C911.6 802.754 916.4 876.754 920.4 951.154C925.2 1025.55 929.2 1095.55 932.4 1161.15H750C747.6 1080.35 744.4 992.354 740.4 897.154C736.4 801.954 730.4 705.954 722.4 609.154C708 642.754 692 679.954 674.4 720.754C656.8 761.554 639.2 802.354 621.6 843.154C604.8 883.954 588.4 923.154 572.4 960.754C556.4 997.554 542.8 1029.15 531.6 1055.55H400.8C389.6 1029.15 376 997.554 360 960.754C344 923.154 327.2 883.954 309.6 843.154C292.8 802.354 275.6 761.554 258 720.754C240.4 679.954 224.4 642.754 210 609.154C202 705.954 196 801.954 192 897.154C188 992.354 184.8 1080.35 182.4 1161.15H0C3.2 1095.55 6.8 1025.55 10.8 951.154C15.6 876.754 20.4 802.754 25.2 729.154C30.8 654.754 36.8 583.554 43.2 515.554C50.4 446.754 58 384.754 66 329.554H244.8Z"
     fill="black"
     id="path4"
     style="fill:#000000;fill-opacity:1" />
</svg>